<?xml version="1.0" encoding="UTF-8" standalone="no"?><!DOCTYPE svg PUBLIC "-//W3C//DTD SVG 1.1//EN" "http://www.w3.org/Graphics/SVG/1.1/DTD/svg11.dtd"><svg width="100%" height="100%" viewBox="0 0 152 152" version="1.1" xmlns="http://www.w3.org/2000/svg" xmlns:xlink="http://www.w3.org/1999/xlink" xml:space="preserve" style="fill-rule:evenodd;clip-rule:evenodd;stroke-linejoin:round;stroke-miterlimit:1.41421;"><g id="Group"><g><path d="M152.009,75.969c0,-41.929 -34.04,-75.969 -75.969,-75.969c-41.928,0 -75.968,34.04 -75.968,75.969c0,41.928 34.04,75.968 75.968,75.968c41.929,0 75.969,-34.04 75.969,-75.968Z" style="fill:url(#_Radial1);"/><clipPath id="_clip2"><path d="M152.009,75.969c0,-41.929 -34.04,-75.969 -75.969,-75.969c-41.928,0 -75.968,34.04 -75.968,75.969c0,41.928 34.04,75.968 75.968,75.968c41.929,0 75.969,-34.04 75.969,-75.968Z"/></clipPath><g clip-path="url(#_clip2)"><g><path d="M47.265,54.038l35.169,1.25l16.029,-5.826l6.47,6.47l6.71,-6.709l62.778,62.778l-51.642,51.642l-6.47,-6.47l-13.631,13.631l-62.778,-62.778l8.404,-22.151l-1.039,-31.837Z" style="fill:url(#_Linear3);"/></g></g></g><g><path d="M72.199,84.315l-5.34,-5.34l-1.819,1.806l7.159,7.159l15.367,-15.368l-1.806,-1.805l-13.561,13.548Z" style="fill:#fff;fill-rule:nonzero;"/><path d="M64.386,40.006l-7.109,7.769l-12.315,0c-4.273,0 -7.769,3.496 -7.769,7.77l0,46.617c0,4.273 3.496,7.77 7.769,7.77l62.157,0c4.273,0 7.769,-3.497 7.769,-7.77l0,-46.617c0,-4.274 -3.496,-7.77 -7.769,-7.77l-12.315,0l-7.109,-7.769l-23.309,0Zm11.654,58.271c-10.722,0 -19.423,-8.702 -19.423,-19.424c0,-10.722 8.701,-19.424 19.423,-19.424c10.722,0 19.424,8.702 19.424,19.424c0,10.722 -8.702,19.424 -19.424,19.424Z" style="fill:#fff;fill-rule:nonzero;"/></g></g><defs><radialGradient id="_Radial1" cx="0" cy="0" r="1" gradientUnits="userSpaceOnUse" gradientTransform="matrix(196.073,-196.073,121.471,121.471,24.1918,27.3371)"><stop offset="0" style="stop-color:#0cc300;stop-opacity:1"/><stop offset="1" style="stop-color:#0d420c;stop-opacity:1"/></radialGradient><linearGradient id="_Linear3" x1="0" y1="0" x2="1" y2="0" gradientUnits="userSpaceOnUse" gradientTransform="matrix(-90.5293,-89.8876,98.9622,-82.2279,148.851,145.18)"><stop offset="0" style="stop-color:#000;stop-opacity:0"/><stop offset="1" style="stop-color:#000;stop-opacity:0.364706"/></linearGradient></defs></svg>